<svg width="74" height="64" viewBox="0 0 74 64" fill="none" xmlns="http://www.w3.org/2000/svg">
<path d="M11.4906 8.46509C13.8671 4.62774 26.3964 -1.43501 40.9243 0.307458C43.7878 0.653341 59.1515 2.4937 68.1778 14.9912C69.8784 17.3471 76.114 26.6795 73.2651 38.4852C70.9904 47.9089 64.2097 53.4234 61.637 55.4531C52.6761 62.5339 42.6032 63.7086 38.3807 63.937C25.4444 64.6353 12.9587 59.3752 12.5807 55.7794C12.4136 54.1739 13.3075 53.1689 13.3075 53.1689C14.3758 51.9681 16.309 51.8963 16.9413 51.8637C24.5868 51.446 31.4256 47.3737 38.7441 45.3376C38.7441 45.3376 42.6686 44.5675 43.1046 45.3376C43.3517 45.7748 42.436 46.6102 41.6511 47.2954C37.1815 51.2046 33.3806 53.2929 33.6568 53.8215C33.8021 54.1022 35.0376 53.8346 35.1103 53.8215C55.6049 49.3316 59.8201 36.8537 59.8201 36.8537C60.0454 35.5484 62.4001 20.186 51.099 11.4018C40.5464 3.19852 23.3804 4.84963 16.9413 8.13879C15.9892 8.62824 11.8903 10.8732 11.1272 10.0966C10.7566 9.72463 11.2944 8.78487 11.4906 8.46509Z" fill="white"/>
<path d="M34.4167 33.2016C34.2161 32.9549 36.5565 31.345 41.0292 27.359C46.9358 22.1007 47.0918 21.14 47.0324 20.5297C46.7278 17.5046 40.145 14.7067 34.4241 15.0248C27.7745 15.3883 19 20.1273 19 28.0082C19 35.5062 26.9498 40.758 34.4241 40.9917C41.839 41.2254 47.7382 36.4929 49.8483 31.9033C51.4754 28.3588 51.2896 23.9249 49.8483 23.464C48.7858 23.1199 47.6565 25.1389 43.9713 28.0082C39.4541 31.5202 34.6842 33.5262 34.4167 33.2016Z" fill="white"/>
<path d="M0 18.9214C1.28238 18.7659 3.16952 18.3446 4.39361 17.0158C6.23704 14.9999 5.70514 11.8432 5.90187 11.8432C6.0986 11.8432 5.50113 14.9934 7.30812 17.0417C8.50306 18.3964 10.3829 18.8437 11.658 19.0252" fill="white"/>
<path d="M11.7526 18.9992C10.4703 19.1418 8.57584 19.5437 7.33718 20.866C5.46461 22.8624 5.96007 26.0256 5.76335 26.0256C5.56662 26.0191 6.20052 22.8754 4.42267 20.8141C3.2423 19.4465 1.36973 18.9798 0.094636 18.7918" fill="white"/>
<path d="M10.2171 43.6343C8.83937 42.0692 14.442 35.0548 15.1627 34.2063C15.5018 33.8103 16.2295 33.0309 17.2822 31.6922C17.586 31.3088 17.8333 30.9819 17.8615 31.0008C18.0028 31.0762 10.4926 39.8065 12.3366 41.7487C14.6328 44.1685 29.8864 35.9033 29.9994 36.0919C30.1195 36.293 12.2801 45.9787 10.2171 43.6343Z" fill="white"/>
<path d="M12.8018 21.754C13.4357 21.7022 14.3683 21.5661 14.9731 21.1253C15.8838 20.4641 15.6215 19.4206 15.7235 19.427C15.8183 19.427 15.5268 20.4641 16.4157 21.1383C17.0059 21.5855 17.9386 21.7346 18.5652 21.7864" fill="white"/>
<path d="M18.6162 21.78C17.9823 21.8253 17.0497 21.9614 16.4304 22.3957C15.505 23.0504 15.7527 24.094 15.6507 24.094C15.556 24.094 15.8693 23.0569 14.9877 22.3828C14.4048 21.9355 13.4794 21.78 12.8455 21.7151" fill="white"/>
<path d="M4.84521 29.7462C5.55198 29.6749 6.59392 29.4869 7.27154 28.8841C8.29162 27.9766 7.99288 26.5571 8.10217 26.5571C8.21147 26.5571 7.88359 27.9766 8.87452 28.897C9.53757 29.5063 10.5722 29.7073 11.2717 29.7915" fill="white"/>
<path d="M11.33 29.7786C10.6233 29.8434 9.58134 30.0249 8.89643 30.6212C7.86178 31.5222 8.13866 32.9482 8.02937 32.9418C7.92007 32.9418 8.26981 31.5222 7.29346 30.5953C6.64498 29.9795 5.61033 29.7721 4.90356 29.6878" fill="white"/>
<path d="M13.9092 33.6613C14.2006 33.8104 14.6524 34.0048 15.075 33.9529C15.7162 33.8816 15.9858 33.2918 16.0295 33.3177C16.0732 33.3436 15.5632 33.7779 15.6943 34.3548C15.7817 34.7373 16.1315 35.0678 16.3792 35.2753" fill="white"/>
<path d="M16.4009 35.2882C16.1095 35.1327 15.6577 34.9382 15.2351 34.9836C14.5939 35.0484 14.3098 35.6318 14.2734 35.6059C14.2296 35.5799 14.747 35.1521 14.6231 34.5752C14.5357 34.1928 14.1932 33.8557 13.9455 33.6548" fill="white"/>
</svg>
